<svg width="24" height="24" viewBox="0 0 24 24" fill="none" xmlns="http://www.w3.org/2000/svg">
<path d="M10.8 3.4L7.20001 7.7C7.10001 7.9 7.00001 8.2 6.90001 8.4L5.20001 17C5.10001 17.6 5.40001 18.3 5.90001 18.6L11.2 21.6C11.6 21.8 12.3 21.8 12.7 21.6L18 18.6C18.5 18.3 18.8 17.6 18.7 17L17 8.4C17 8.2 16.8 7.9 16.7 7.7L13.1 3.4C12.5 2.6 11.5 2.6 10.8 3.4Z" stroke="#1E1E1E" stroke-width="1.5" stroke-miterlimit="10" stroke-linecap="round" stroke-linejoin="round"/>
<path d="M16.8 8.5L12.5 20.7C12.3 21.1 11.7 21.1 11.6 20.7L7.20001 8.5" stroke="#1E1E1E" stroke-width="1.5" stroke-miterlimit="10" stroke-linecap="round" stroke-linejoin="round"/>
</svg>
