<svg width="22" height="22" viewBox="0 0 22 22" fill="none" xmlns="http://www.w3.org/2000/svg">
<path d="M16.931 15.4276L17.2885 18.3242C17.3802 19.085 16.5644 19.6167 15.9135 19.2225L12.0727 16.94C11.651 16.94 11.2385 16.9126 10.8352 16.8576C11.5135 16.0601 11.9169 15.0517 11.9169 13.9609C11.9169 11.3575 9.66185 9.24923 6.87519 9.24923C5.81185 9.24923 4.83102 9.55171 4.01519 10.0834C3.98769 9.85421 3.97852 9.62503 3.97852 9.3867C3.97852 5.21586 7.59935 1.83337 12.0727 1.83337C16.546 1.83337 20.1669 5.21586 20.1669 9.3867C20.1669 11.8617 18.8927 14.0526 16.931 15.4276Z" stroke="#FFCC00" stroke-width="1.375" stroke-linecap="round" stroke-linejoin="round"/>
<path d="M11.9166 13.9609C11.9166 15.0517 11.5133 16.0601 10.8349 16.8576C9.92743 17.9576 8.48825 18.6634 6.87492 18.6634L4.48242 20.0842C4.07908 20.3317 3.56575 19.9926 3.62075 19.5251L3.84992 17.7193C2.62158 16.8668 1.83325 15.5009 1.83325 13.9609C1.83325 12.3476 2.69492 10.9267 4.01492 10.0834C4.83076 9.55174 5.81159 9.24927 6.87492 9.24927C9.66159 9.24927 11.9166 11.3576 11.9166 13.9609Z" stroke="#FFCC00" stroke-width="1.375" stroke-linecap="round" stroke-linejoin="round"/>
</svg>
