<svg width="60" height="63" viewBox="0 0 60 63" fill="none" xmlns="http://www.w3.org/2000/svg">
<path d="M39.4271 42.8503C39.1904 32.2007 30.3681 23.9961 19.7159 23.9961C9.06375 23.9961 0.241386 32.2007 0.0047294 42.8503C-0.237126 53.7338 8.82972 62.5614 19.7159 62.5614C30.6021 62.5614 39.6689 53.7338 39.4271 42.8503Z" fill="#FFCC00"/>
<path d="M22.2358 40.177L20.0225 35.7504C19.8962 35.4978 19.5356 35.4978 19.4093 35.7504L17.196 40.177C17.1628 40.2434 17.109 40.2972 17.0427 40.3304L12.6161 42.5437C12.3634 42.67 12.3634 43.0306 12.6161 43.1569L17.0427 45.3702C17.109 45.4034 17.1628 45.4572 17.196 45.5235L19.4093 49.9501C19.5356 50.2028 19.8962 50.2028 20.0225 49.9501L22.2358 45.5235C22.269 45.4572 22.3228 45.4034 22.3891 45.3702L26.8158 43.1569C27.0684 43.0306 27.0684 42.67 26.8158 42.5437L22.3891 40.3304C22.3228 40.2972 22.269 40.2434 22.2358 40.177Z" fill="#171A1F"/>
<path fill-rule="evenodd" clip-rule="evenodd" d="M40.2841 0C50.9362 0 59.7586 8.20464 59.9953 18.8542C60.2325 29.528 51.5162 38.2244 40.9113 38.5556C39.4373 29.1898 31.2039 22.2822 21.4299 22.2822C21.2224 22.2822 21.0156 22.2853 20.8095 22.2915C20.6288 21.1752 20.5469 20.0266 20.5729 18.8542C20.8096 8.20464 29.6319 0 40.2841 0Z" fill="#FFCC00"/>
</svg>
