<svg width="60" height="60" viewBox="0 0 60 60" fill="none" xmlns="http://www.w3.org/2000/svg">
<path d="M0 13.5C0 12.3065 0.474106 11.1619 1.31802 10.318C2.16193 9.47411 3.30653 9 4.5 9H55.5C56.6935 9 57.8381 9.47411 58.682 10.318C59.5259 11.1619 60 12.3065 60 13.5V18H0V13.5Z" fill="white"/>
<path fill-rule="evenodd" clip-rule="evenodd" d="M0 24V46.5C0 47.6935 0.474106 48.8381 1.31802 49.682C2.16193 50.5259 3.30653 51 4.5 51H55.5C56.6935 51 57.8381 50.5259 58.682 49.682C59.5259 48.8381 60 47.6935 60 46.5V24H0ZM21 36H6V30H21V36Z" fill="white"/>
</svg>
