<svg width="60" height="60" viewBox="0 0 60 60" fill="none" xmlns="http://www.w3.org/2000/svg">
<path d="M54.9998 7.5H5.00024C2.25073 7.5 0 9.75073 0 12.5002V47.4998C0 50.2493 2.25073 52.5 5.00024 52.5H54.9998C57.7493 52.5 60 50.2493 60 47.4998V12.5002C60 9.75073 57.7493 7.5 54.9998 7.5ZM17.4998 17.4998C20.2642 17.4998 22.5 19.7385 22.5 22.5C22.5 25.2615 20.2642 27.5002 17.4998 27.5002C14.736 27.5002 12.5002 25.2615 12.5002 22.5C12.5002 19.7385 14.736 17.4998 17.4998 17.4998ZM27.5002 42.5002H7.5V37.5022C7.5 34.7407 9.74106 32.5027 12.5002 32.5027L22.5 32.4996C25.2637 32.4996 27.5002 34.7383 27.5002 37.4999V42.5002ZM52.5 42.5002H32.4998V37.5H52.5V42.5002ZM52.5 32.4998H32.4998V27.5002H52.5V32.4998ZM52.5 22.5H27.5002V17.4998H52.5V22.5Z" fill="white"/>
</svg>
