<svg width="60" height="60" viewBox="0 0 60 60" fill="none" xmlns="http://www.w3.org/2000/svg">
<g clip-path="url(#clip0_292_832)">
<path d="M56.332 21.9141C52.0441 21.2414 49.0289 17.2735 49.5082 13.0676C49.5732 12.4978 49.7026 11.9372 49.8938 11.3965C50.3906 9.96916 49.8809 8.32033 48.6539 7.28674C46.0609 5.04884 43.1209 3.24795 39.9492 1.95471C39.2575 1.66312 38.4883 1.61048 37.7633 1.8051C37.0383 1.99973 36.3988 2.43051 35.9461 3.02932C33.4359 6.38439 28.5996 6.97268 25.3336 4.35353C24.8533 3.96741 24.4234 3.52253 24.0539 3.02932C23.6012 2.43051 22.9618 1.99973 22.2367 1.8051C21.5117 1.61048 20.7425 1.66312 20.0508 1.95471C17.1253 3.14547 14.3955 4.7695 11.9531 6.77228C10.6641 7.8176 10.1297 9.53088 10.6524 11.0063C12.1137 14.8817 10.1402 19.4262 6.13126 21.0844C5.41698 21.3824 4.66357 21.5762 3.89415 21.6598C2.2793 21.8602 0.93985 23.0543 0.612897 24.5953C-0.122003 27.8537 -0.187784 31.2272 0.419537 34.5117C0.703131 36.1031 2.06016 37.3524 3.72422 37.5586C8.01329 38.0133 11.2031 41.8055 10.9289 46.0254C10.8759 46.8732 10.6777 47.7056 10.343 48.4863C9.70899 49.9524 10.2012 51.7301 11.5149 52.8106C14.0905 55.0095 17.0015 56.782 20.1375 58.0606C20.5269 58.2099 20.9383 58.2939 21.3551 58.309C21.9199 58.3201 22.4783 58.1881 22.9784 57.9254C23.4786 57.6628 23.9041 57.2779 24.2156 56.8067C24.8832 55.8039 25.7842 54.9782 26.8413 54.4004C27.8983 53.8226 29.0798 53.5099 30.2842 53.4893C31.4887 53.4687 32.6802 53.7407 33.7564 54.2819C34.8326 54.8232 35.7613 55.6176 36.4629 56.5969C36.9135 57.2375 37.5736 57.7007 38.3293 57.9065C39.0849 58.1123 39.8887 58.0478 40.602 57.7242C43.4677 56.4533 46.1335 54.7724 48.5156 52.7344C49.7649 51.6797 50.2734 49.991 49.7379 48.5449C48.232 44.686 50.1563 40.1238 54.1406 38.4281C54.8141 38.1385 55.5237 37.9414 56.25 37.8422C57.8461 37.5973 59.141 36.3867 59.4363 34.8551C59.7828 33.2544 59.9716 31.6235 60 29.986C59.9996 28.2578 59.8186 26.5343 59.4598 24.8438C59.1598 23.3449 57.893 22.1625 56.332 21.9141ZM39.9996 29.986C39.9996 35.475 35.4856 39.9809 30 39.9856C24.5145 39.9903 20.0051 35.475 20.0004 29.986C19.9957 24.4969 24.5145 19.9899 30 19.9852C35.4856 19.9805 39.9949 24.4922 39.9996 29.986Z" fill="black"/>
</g>
<defs>
<clipPath id="clip0_292_832">
<rect width="60" height="60" fill="white"/>
</clipPath>
</defs>
</svg>
