<svg width="60" height="60" viewBox="0 0 60 60" fill="none" xmlns="http://www.w3.org/2000/svg">
<path d="M47 31C47 26.4913 45.2089 22.1673 42.0208 18.9792C38.8327 15.7911 34.5087 14 30 14C25.4913 14 21.1673 15.7911 17.9792 18.9792C14.7911 22.1673 13 26.4913 13 31V48H47V31ZM30 18C26.5534 18.004 23.2491 19.3749 20.812 21.812C18.3749 24.2491 17.004 27.5534 17 31C17 31.2652 16.8946 31.5196 16.7071 31.7071C16.5196 31.8946 16.2652 32 16 32C15.7348 32 15.4804 31.8946 15.2929 31.7071C15.1054 31.5196 15 31.2652 15 31C15.0045 27.0231 16.5863 23.2104 19.3984 20.3984C22.2104 17.5863 26.0231 16.0045 30 16C30.2652 16 30.5196 16.1054 30.7071 16.2929C30.8946 16.4804 31 16.7348 31 17C31 17.2652 30.8946 17.5196 30.7071 17.7071C30.5196 17.8946 30.2652 18 30 18ZM49 51C49 50.7348 48.8946 50.4804 48.7071 50.2929C48.5196 50.1054 48.2652 50 48 50H12C11.7348 50 11.4804 50.1054 11.2929 50.2929C11.1054 50.4804 11 50.7348 11 51V52H49V51ZM52.275 54.553C52.192 54.3869 52.0644 54.2472 51.9065 54.1496C51.7486 54.0519 51.5667 54.0001 51.381 54H8.619C8.43334 54.0001 8.25137 54.0519 8.09347 54.1496C7.93558 54.2472 7.80799 54.3869 7.725 54.553L6 58H54L52.275 54.553Z" fill="black"/>
<path d="M32 3C32 1.89543 31.1046 1 30 1C28.8954 1 28 1.89543 28 3V7C28 8.10457 28.8954 9 30 9C31.1046 9 32 8.10457 32 7V3Z" fill="black"/>
<path d="M11.6126 9.78671C10.8315 9.00567 9.56521 9.00567 8.78416 9.78671C8.00311 10.5678 8.00311 11.8341 8.78416 12.6151L11.6126 15.4436C12.3936 16.2246 13.66 16.2246 14.441 15.4436C15.2221 14.6625 15.2221 13.3962 14.441 12.6151L11.6126 9.78671Z" fill="black"/>
<path d="M3 29C1.89543 29 1 29.8954 1 31C1 32.1046 1.89543 33 3 33H7C8.10457 33 9 32.1046 9 31C9 29.8954 8.10457 29 7 29H3Z" fill="black"/>
<path d="M57 33C58.1046 33 59 32.1046 59 31C59 29.8954 58.1046 29 57 29H53C51.8954 29 51 29.8954 51 31C51 32.1046 51.8954 33 53 33H57Z" fill="black"/>
<path d="M51.2099 12.6093C51.991 11.8283 51.991 10.562 51.2099 9.78091C50.4289 8.99986 49.1626 8.99986 48.3815 9.78091L45.5531 12.6093C44.772 13.3904 44.772 14.6567 45.5531 15.4378C46.3341 16.2188 47.6005 16.2188 48.3815 15.4378L51.2099 12.6093Z" fill="black"/>
</svg>
