<svg width="60" height="60" viewBox="0 0 60 60" fill="none" xmlns="http://www.w3.org/2000/svg">
<g clip-path="url(#clip0_292_805)">
<path d="M58.3822 26.0971L58.3781 26.093L33.9029 1.61871C32.8596 0.574805 31.4726 0 29.9973 0C28.5219 0 27.1349 0.574453 26.0912 1.61824L1.62868 26.0801C1.62047 26.0883 1.61227 26.097 1.60407 26.1053C-0.538356 28.2599 -0.534606 31.7558 1.61461 33.905C2.59641 34.8874 3.89332 35.4564 5.27989 35.5159C5.33614 35.5214 5.39297 35.5241 5.45016 35.5241H6.42563V53.5358C6.42563 57.1001 9.32555 60 12.8906 60H22.466C23.4366 60 24.2238 59.2131 24.2238 58.2422V44.1211C24.2238 42.4946 25.5469 41.1717 27.1733 41.1717H32.8212C34.4477 41.1717 35.7705 42.4948 35.7705 44.1211V58.2422C35.7705 59.2131 36.5575 60 37.5284 60H47.1039C50.6689 60 53.5689 57.1001 53.5689 53.5359V35.5242H54.4734C55.9484 35.5242 57.3354 34.9498 58.3795 33.9061C60.5311 31.7532 60.5319 28.2513 58.3822 26.0971Z" fill="black"/>
</g>
<defs>
<clipPath id="clip0_292_805">
<rect width="60" height="60" fill="white"/>
</clipPath>
</defs>
</svg>
