<svg width="60" height="60" viewBox="0 0 60 60" fill="none" xmlns="http://www.w3.org/2000/svg">
<g clip-path="url(#clip0_292_809)">
<path d="M59.2784 17.1837L42.5482 0.453426C42.4045 0.309677 42.2339 0.195645 42.0461 0.117844C41.8584 0.0400441 41.6571 0 41.4539 0C41.2506 0 41.0494 0.0400441 40.8616 0.117844C40.6739 0.195645 40.5033 0.309677 40.3596 0.453426L40.2887 0.524314C39.7827 1.02743 39.3816 1.62591 39.1085 2.28511C38.8354 2.94431 38.6957 3.65113 38.6976 4.36467C38.6976 5.29922 38.935 6.196 39.3761 6.99125L21.8708 22.0149C20.531 20.8176 18.821 20.1622 17.0098 20.1622C16.0499 20.1596 15.0991 20.3473 14.2123 20.7147C13.3255 21.082 12.5204 21.6216 11.8436 22.3022L11.7387 22.4071C11.5949 22.5508 11.4809 22.7214 11.4031 22.9092C11.3253 23.0969 11.2853 23.2982 11.2853 23.5014C11.2853 23.7047 11.3253 23.9059 11.4031 24.0937C11.4809 24.2814 11.5949 24.452 11.7387 24.5957L21.7615 34.6185L11.9999 44.3797C11.8046 44.5806 7.18418 49.3419 4.14651 53.1309C1.2537 56.7381 0.681645 57.399 0.651927 57.4331C0.393171 57.728 0.256181 58.1102 0.268711 58.5023C0.281241 58.8944 0.442355 59.2671 0.71941 59.5449C0.86311 59.6894 1.03401 59.8041 1.22225 59.8822C1.41049 59.9604 1.61235 60.0005 1.81617 60.0002C2.17928 60.0002 2.54331 59.8733 2.83615 59.6173C2.86185 59.595 3.50758 59.0338 7.13836 56.1227C10.9267 53.0851 15.688 48.4643 15.9044 48.2535L25.6501 38.5078L35.1362 47.9938C35.4383 48.2962 35.8345 48.4473 36.2304 48.4473C36.6264 48.4473 37.0229 48.2962 37.3247 47.9938L37.4297 47.8889C38.1102 47.212 38.6498 46.4069 39.0171 45.5201C39.3845 44.6334 39.5723 43.6825 39.5696 42.7227C39.5744 40.929 38.9143 39.1972 37.7169 37.8617L52.7406 20.3563C53.5441 20.8025 54.4482 21.036 55.3672 21.0349C56.8181 21.0349 58.182 20.4699 59.2075 19.4438L59.2784 19.3729C59.4222 19.2291 59.5362 19.0585 59.6141 18.8707C59.6919 18.6829 59.7319 18.4816 59.7319 18.2783C59.7319 18.075 59.6919 17.8737 59.6141 17.6859C59.5362 17.4981 59.4222 17.3274 59.2784 17.1837Z" fill="#FFCC00"/>
</g>
<defs>
<clipPath id="clip0_292_809">
<rect width="60" height="60" fill="white"/>
</clipPath>
</defs>
</svg>
