<svg xmlns="http://www.w3.org/2000/svg" style="display: none;">
  <symbol width="28" height="28" id="profile-icon" viewBox="0 0 28 28">
    <path d="M21.1636 25.2234C20.1369 25.5267 18.9236 25.6667 17.5002 25.6667H10.5002C9.07691 25.6667 7.86358 25.5267 6.83691 25.2234C7.09358 22.19 10.2086 19.7983 14.0002 19.7983C17.7919 19.7983 20.9069 22.19 21.1636 25.2234Z"  stroke-width="1.75" stroke-linecap="round" stroke-linejoin="round"/>
    <path d="M17.4999 2.33325H10.4999C4.66659 2.33325 2.33325 4.66659 2.33325 10.4999V17.4999C2.33325 21.9099 3.66325 24.3249 6.83659 25.2232C7.09325 22.1899 10.2083 19.7982 13.9999 19.7982C17.7916 19.7982 20.9066 22.1899 21.1633 25.2232C24.3366 24.3249 25.6666 21.9099 25.6666 17.4999V10.4999C25.6666 4.66659 23.3333 2.33325 17.4999 2.33325ZM13.9999 16.5316C11.6899 16.5316 9.82325 14.6533 9.82325 12.3433C9.82325 10.0333 11.6899 8.16659 13.9999 8.16659C16.3099 8.16659 18.1766 10.0333 18.1766 12.3433C18.1766 14.6533 16.3099 16.5316 13.9999 16.5316Z" stroke-width="1.75" stroke-linecap="round" stroke-linejoin="round"/>
    <path d="M18.1766 12.3434C18.1766 14.6534 16.3099 16.5317 13.9999 16.5317C11.6899 16.5317 9.82324 14.6534 9.82324 12.3434C9.82324 10.0334 11.6899 8.16675 13.9999 8.16675C16.3099 8.16675 18.1766 10.0334 18.1766 12.3434Z"  stroke-width="1.75" stroke-linecap="round" stroke-linejoin="round"/>
  </symbol>
  <symbol width="23" height="22" id="add-square" viewBox="0 0 23 22">
    <path d="M7.8335 11H15.1668"  stroke-width="1.375" stroke-linecap="round" stroke-linejoin="round"/>
    <path d="M11.5 14.6666V7.33325"  stroke-width="1.375" stroke-linecap="round" stroke-linejoin="round"/>
    <path d="M8.75016 20.1666H14.2502C18.8335 20.1666 20.6668 18.3333 20.6668 13.7499V8.24992C20.6668 3.66659 18.8335 1.83325 14.2502 1.83325H8.75016C4.16683 1.83325 2.3335 3.66659 2.3335 8.24992V13.7499C2.3335 18.3333 4.16683 20.1666 8.75016 20.1666Z"  stroke-width="1.375" stroke-linecap="round" stroke-linejoin="round"/>
  </symbol>
  <symbol width="22" height="22" id="home" viewBox="0 0 22 22">
    <path d="M8.26825 2.60328L3.32742 6.45328C2.50242 7.09495 1.83325 8.46078 1.83325 9.49661V16.2891C1.83325 18.4158 3.56575 20.1574 5.69242 20.1574H16.3074C18.4341 20.1574 20.1666 18.4158 20.1666 16.2983V9.62494C20.1666 8.51578 19.4241 7.09495 18.5166 6.46245L12.8516 2.49328C11.5683 1.59495 9.50575 1.64078 8.26825 2.60328Z" stroke-width="1.375" stroke-linecap="round" stroke-linejoin="round"/>
    <path d="M11 16.4907V13.7407" stroke-width="1.375" stroke-linecap="round" stroke-linejoin="round"/>
  </symbol>
  <symbol width="22" height="22" id="channels" viewBox="0 0 22 22">
    <path d="M16.931 15.4276L17.2885 18.3242C17.3802 19.085 16.5644 19.6167 15.9135 19.2225L12.0727 16.94C11.651 16.94 11.2385 16.9126 10.8352 16.8576C11.5135 16.0601 11.9169 15.0517 11.9169 13.9609C11.9169 11.3575 9.66185 9.24923 6.87519 9.24923C5.81185 9.24923 4.83102 9.55171 4.01519 10.0834C3.98769 9.85421 3.97852 9.62503 3.97852 9.3867C3.97852 5.21586 7.59935 1.83337 12.0727 1.83337C16.546 1.83337 20.1669 5.21586 20.1669 9.3867C20.1669 11.8617 18.8927 14.0526 16.931 15.4276Z"  stroke-width="1.375" stroke-linecap="round" stroke-linejoin="round"/>
    <path d="M11.9166 13.9609C11.9166 15.0517 11.5133 16.0601 10.8349 16.8576C9.92743 17.9576 8.48825 18.6634 6.87492 18.6634L4.48242 20.0842C4.07908 20.3317 3.56575 19.9926 3.62075 19.5251L3.84992 17.7193C2.62158 16.8668 1.83325 15.5009 1.83325 13.9609C1.83325 12.3476 2.69492 10.9267 4.01492 10.0834C4.83076 9.55174 5.81159 9.24927 6.87492 9.24927C9.66159 9.24927 11.9166 11.3576 11.9166 13.9609Z"  stroke-width="1.375" stroke-linecap="round" stroke-linejoin="round"/>
  </symbol>
  <symbol width="22" height="22" id="arrows" viewBox="0 0 18 18">
    <path d="M13.8401 7.57916L17.2501 4.16913L13.8401 0.759155"  stroke-width="1.375" stroke-linecap="round" stroke-linejoin="round"/>
    <path d="M0.75 4.16919H17.25"  stroke-width="1.375" stroke-linecap="round" stroke-linejoin="round"/>
    <path d="M4.15997 10.4209L0.75 13.8309L4.15997 17.2409"  stroke-width="1.375" stroke-linecap="round" stroke-linejoin="round"/>
    <path d="M17.25 13.8308H0.75"  stroke-width="1.375" stroke-linecap="round" stroke-linejoin="round"/>
  </symbol>
  <symbol width="34" height="34" id="close" viewBox="0 0 34 34">
    <path d="M12.7278 12.7279L21.2131 21.2132" stroke-width="1.5" stroke-linecap="round" stroke-linejoin="round"/>
    <path d="M12.7278 21.2132L21.2131 12.7279" stroke-width="1.5" stroke-linecap="round" stroke-linejoin="round"/>
  </symbol>
  <symbol width="24" height="24" id="bnb-icon" viewBox="0 0 24 24">
    <path d="M12 2L6 8L8 10L12 6L16 10L18 8L12 2Z"  stroke-width="1.5" stroke-miterlimit="10" stroke-linecap="round" stroke-linejoin="round"/>
    <path d="M12 22L6 16L8 14L12 18L16 14L18 16L12 22Z"  stroke-width="1.5" stroke-miterlimit="10" stroke-linecap="round" stroke-linejoin="round"/>
    <path d="M19.7852 9.702L17.5225 11.9647L19.7852 14.2274L22.0479 11.9647L19.7852 9.702Z"  stroke-width="1.5" stroke-miterlimit="10" stroke-linecap="round" stroke-linejoin="round"/>
    <path d="M4.28524 9.70185L2.02252 11.9646L4.28524 14.2273L6.54796 11.9646L4.28524 9.70185Z"  stroke-width="1.5" stroke-miterlimit="10" stroke-linecap="round" stroke-linejoin="round"/>
    <path d="M11.9291 9.52515L9.45422 12L11.9291 14.4748L14.4039 12L11.9291 9.52515Z"  stroke-width="1.5" stroke-miterlimit="10" stroke-linecap="round" stroke-linejoin="round"/>
  </symbol>
  <symbol width="24" height="24" id="busd-icon" viewBox="0 0 24 24">
    <path d="M11.4 2.4L6.29999 7.5C6.09999 7.7 6.09999 8 6.29999 8.2L7.99999 9.9C8.19999 10.1 8.49999 10.1 8.69999 9.9L13.8 4.8C14 4.6 14 4.3 13.8 4.1L12.1 2.4C11.9 2.2 11.6 2.2 11.4 2.4Z"  stroke-width="1.5" stroke-miterlimit="10" stroke-linecap="round" stroke-linejoin="round"/>
    <path d="M15.3 6.3L6.29999 15.3C6.09999 15.5 6.09999 15.8 6.29999 16L7.99999 17.7C8.19999 17.9 8.49999 17.9 8.69999 17.7L17.7 8.7C17.9 8.5 17.9 8.2 17.7 8L16 6.3C15.8 6.1 15.5 6.1 15.3 6.3Z"  stroke-width="1.5" stroke-miterlimit="10" stroke-linecap="round" stroke-linejoin="round"/>
    <path d="M19.2 10.2L10.2 19.2C9.99999 19.4 9.99999 19.7 10.2 19.9L11.9 21.6C12.1 21.8 12.4 21.8 12.6 21.6L21.6 12.6C21.8 12.4 21.8 12.1 21.6 11.9L19.9 10.2C19.7 10 19.4 10 19.2 10.2Z"  stroke-width="1.5" stroke-miterlimit="10" stroke-linecap="round" stroke-linejoin="round"/>
    <path d="M4.1 13.8L2.4 12.1C2.2 11.9 2.2 11.6 2.4 11.4L4.1 9.7C4.3 9.5 4.6 9.5 4.8 9.7L6.5 11.4C6.7 11.6 6.7 11.9 6.5 12.1L4.8 13.8C4.6 14 4.3 14 4.1 13.8Z"  stroke-width="1.5" stroke-miterlimit="10" stroke-linecap="round" stroke-linejoin="round"/>
  </symbol>
  <symbol width="24" height="24" id="btc-icon" viewBox="0 0 24 24">
    <path d="M9 8.38079H13.6846C14.7231 8.38079 15.5654 9.31541 15.5654 10.2616C15.5654 11.3 14.7231 12.1423 13.6846 12.1423H9V8.38079Z"  stroke-width="1.5" stroke-miterlimit="10" stroke-linecap="round" stroke-linejoin="round"/>
    <path d="M9 12.1308H14.3539C15.5423 12.1308 16.5 12.9731 16.5 14.0115C16.5 15.05 15.5423 15.8923 14.3539 15.8923H9V12.1308Z"  stroke-width="1.5" stroke-miterlimit="10" stroke-linecap="round" stroke-linejoin="round"/>
    <path d="M12.2769 15.8808V17.7616"  stroke-width="1.5" stroke-miterlimit="10" stroke-linecap="round" stroke-linejoin="round"/>
    <path d="M9.93463 15.8808V17.7616"  stroke-width="1.5" stroke-miterlimit="10" stroke-linecap="round" stroke-linejoin="round"/>
    <path d="M12.2769 6.5V8.38077"  stroke-width="1.5" stroke-miterlimit="10" stroke-linecap="round" stroke-linejoin="round"/>
    <path d="M9.93463 6.5V8.38077"  stroke-width="1.5" stroke-miterlimit="10" stroke-linecap="round" stroke-linejoin="round"/>
    <path d="M10.7769 8.38079H7.5"  stroke-width="1.5" stroke-miterlimit="10" stroke-linecap="round" stroke-linejoin="round"/>
    <path d="M10.7769 15.8808H7.5"  stroke-width="1.5" stroke-miterlimit="10" stroke-linecap="round" stroke-linejoin="round"/>
    <path d="M12 22C17.5228 22 22 17.5228 22 12C22 6.47715 17.5228 2 12 2C6.47715 2 2 6.47715 2 12C2 17.5228 6.47715 22 12 22Z"  stroke-width="1.5" stroke-miterlimit="10"/>
  </symbol>
  <symbol width="24" height="24" id="ada-icon" viewBox="0 0 24 24">
    <path d="M13.75 10C14.3023 10 14.75 9.55228 14.75 9C14.75 8.44772 14.3023 8 13.75 8C13.1977 8 12.75 8.44772 12.75 9C12.75 9.55228 13.1977 10 13.75 10Z"  stroke-miterlimit="10"/>
    <path d="M10.25 10C10.8023 10 11.25 9.55228 11.25 9C11.25 8.44772 10.8023 8 10.25 8C9.69772 8 9.25 8.44772 9.25 9C9.25 9.55228 9.69772 10 10.25 10Z"  stroke-miterlimit="10"/>
    <path d="M15.5 13C16.0523 13 16.5 12.5523 16.5 12C16.5 11.4477 16.0523 11 15.5 11C14.9477 11 14.5 11.4477 14.5 12C14.5 12.5523 14.9477 13 15.5 13Z"  stroke-miterlimit="10"/>
    <path d="M17.15 9.75C17.5642 9.75 17.9 9.41421 17.9 9C17.9 8.58579 17.5642 8.25 17.15 8.25C16.7358 8.25 16.4 8.58579 16.4 9C16.4 9.41421 16.7358 9.75 17.15 9.75Z"  stroke-miterlimit="10"/>
    <path d="M17.15 15.75C17.5642 15.75 17.9 15.4142 17.9 15C17.9 14.5858 17.5642 14.25 17.15 14.25C16.7358 14.25 16.4 14.5858 16.4 15C16.4 15.4142 16.7358 15.75 17.15 15.75Z"  stroke-miterlimit="10"/>
    <path d="M19.75 12.75C20.1642 12.75 20.5 12.4142 20.5 12C20.5 11.5858 20.1642 11.25 19.75 11.25C19.3358 11.25 19 11.5858 19 12C19 12.4142 19.3358 12.75 19.75 12.75Z"  stroke-miterlimit="10"/>
    <path d="M6.79999 9.75C7.2142 9.75 7.54999 9.41421 7.54999 9C7.54999 8.58579 7.2142 8.25 6.79999 8.25C6.38577 8.25 6.04999 8.58579 6.04999 9C6.04999 9.41421 6.38577 9.75 6.79999 9.75Z"  stroke-miterlimit="10"/>
    <path d="M6.79999 15.75C7.2142 15.75 7.54999 15.4142 7.54999 15C7.54999 14.5858 7.2142 14.25 6.79999 14.25C6.38577 14.25 6.04999 14.5858 6.04999 15C6.04999 15.4142 6.38577 15.75 6.79999 15.75Z"  stroke-miterlimit="10"/>
    <path d="M4.20001 12.75C4.61423 12.75 4.95001 12.4142 4.95001 12C4.95001 11.5858 4.61423 11.25 4.20001 11.25C3.7858 11.25 3.45001 11.5858 3.45001 12C3.45001 12.4142 3.7858 12.75 4.20001 12.75Z"  stroke-miterlimit="10"/>
    <path d="M15.9 5.95C16.3142 5.95 16.65 5.61421 16.65 5.2C16.65 4.78579 16.3142 4.45 15.9 4.45C15.4858 4.45 15.15 4.78579 15.15 5.2C15.15 5.61421 15.4858 5.95 15.9 5.95Z"  stroke-miterlimit="10"/>
    <path d="M8.10001 5.95C8.51422 5.95 8.85001 5.61421 8.85001 5.2C8.85001 4.78579 8.51422 4.45 8.10001 4.45C7.68579 4.45 7.35001 4.78579 7.35001 5.2C7.35001 5.61421 7.68579 5.95 8.10001 5.95Z"  stroke-miterlimit="10"/>
    <path d="M12.05 6.75C12.4642 6.75 12.8 6.41421 12.8 6C12.8 5.58579 12.4642 5.25 12.05 5.25C11.6358 5.25 11.3 5.58579 11.3 6C11.3 6.41421 11.6358 6.75 12.05 6.75Z"  stroke-miterlimit="10"/>
    <path d="M15.9 19.75C16.3142 19.75 16.65 19.4142 16.65 19C16.65 18.5858 16.3142 18.25 15.9 18.25C15.4858 18.25 15.15 18.5858 15.15 19C15.15 19.4142 15.4858 19.75 15.9 19.75Z"  stroke-miterlimit="10"/>
    <path d="M8.10001 19.75C8.51422 19.75 8.85001 19.4142 8.85001 19C8.85001 18.5858 8.51422 18.25 8.10001 18.25C7.68579 18.25 7.35001 18.5858 7.35001 19C7.35001 19.4142 7.68579 19.75 8.10001 19.75Z"  stroke-miterlimit="10"/>
    <path d="M12.05 18.95C12.4642 18.95 12.8 18.6142 12.8 18.2C12.8 17.7858 12.4642 17.45 12.05 17.45C11.6358 17.45 11.3 17.7858 11.3 18.2C11.3 18.6142 11.6358 18.95 12.05 18.95Z"  stroke-miterlimit="10"/>
    <path d="M8.5 13C9.05228 13 9.5 12.5523 9.5 12C9.5 11.4477 9.05228 11 8.5 11C7.94772 11 7.5 11.4477 7.5 12C7.5 12.5523 7.94772 13 8.5 13Z"  stroke-miterlimit="10"/>
    <path d="M10.25 16C10.8023 16 11.25 15.5523 11.25 15C11.25 14.4477 10.8023 14 10.25 14C9.69772 14 9.25 14.4477 9.25 15C9.25 15.5523 9.69772 16 10.25 16Z"  stroke-miterlimit="10"/>
    <path d="M13.75 16C14.3023 16 14.75 15.5523 14.75 15C14.75 14.4477 14.3023 14 13.75 14C13.1977 14 12.75 14.4477 12.75 15C12.75 15.5523 13.1977 16 13.75 16Z"  stroke-miterlimit="10"/>
    <path d="M12 2.45001V2.45001"  stroke-width="2" stroke-linecap="round" stroke-linejoin="round"/>
    <path d="M17.5 2.84998V2.84998"  stroke-width="1.5" stroke-linecap="round" stroke-linejoin="round"/>
    <path d="M17.5 21.2V21.2"  stroke-width="1.5" stroke-linecap="round" stroke-linejoin="round"/>
    <path d="M20 16.5V16.5"  stroke-width="1.5" stroke-linecap="round" stroke-linejoin="round"/>
    <path d="M20 7V7"  stroke-width="1.5" stroke-linecap="round" stroke-linejoin="round"/>
    <path d="M4 16.5V16.5"  stroke-width="1.5" stroke-linecap="round" stroke-linejoin="round"/>
    <path d="M4 7V7"  stroke-width="1.5" stroke-linecap="round" stroke-linejoin="round"/>
    <path d="M6.5 2.84998V2.84998"  stroke-width="1.5" stroke-linecap="round" stroke-linejoin="round"/>
    <path d="M6.5 21.2V21.2"  stroke-width="1.5" stroke-linecap="round" stroke-linejoin="round"/>
    <path d="M12 21.5V21.5"  stroke-width="2" stroke-linecap="round" stroke-linejoin="round"/>
    <path d="M1.54999 12V12"  stroke-width="2" stroke-linecap="round" stroke-linejoin="round"/>
    <path d="M22.5 12V12"  stroke-width="2" stroke-linecap="round" stroke-linejoin="round"/>
  </symbol>
  <symbol width="24" height="24" id="link-icon" viewBox="0 0 24 24">
    <path d="M3 8.2V15.8C3 16.5 3.4 17.2 4 17.5L11 21.4C11.6 21.7 12.3 21.7 12.9 21.4L19.9 17.5C20.5 17.1 20.9 16.5 20.9 15.8V8.2C20.9 7.5 20.5 6.8 19.9 6.5L12.9 2.6C12.3 2.3 11.6 2.3 11 2.6L4 6.4C3.4 6.8 3 7.5 3 8.2Z"  stroke-width="1.5" stroke-miterlimit="10" stroke-linecap="round" stroke-linejoin="round"/>
  </symbol>
  <symbol width="24" height="24" id="eos-icon" viewBox="0 0 24 24">
    <path d="M10.8 3.4L7.20001 7.7C7.10001 7.9 7.00001 8.2 6.90001 8.4L5.20001 17C5.10001 17.6 5.40001 18.3 5.90001 18.6L11.2 21.6C11.6 21.8 12.3 21.8 12.7 21.6L18 18.6C18.5 18.3 18.8 17.6 18.7 17L17 8.4C17 8.2 16.8 7.9 16.7 7.7L13.1 3.4C12.5 2.6 11.5 2.6 10.8 3.4Z"  stroke-width="1.5" stroke-miterlimit="10" stroke-linecap="round" stroke-linejoin="round"/>
    <path d="M16.8 8.5L12.5 20.7C12.3 21.1 11.7 21.1 11.6 20.7L7.20001 8.5"  stroke-width="1.5" stroke-miterlimit="10" stroke-linecap="round" stroke-linejoin="round"/>
  </symbol>
  <symbol width="24" height="24" id="eth-icon" viewBox="0 0 24 24">
    <path d="M10.45 3.05L6.71002 7.71C5.86002 8.77 6.16002 10.13 7.37002 10.73L11.1 12.6C11.59 12.84 12.39 12.84 12.88 12.6L16.61 10.73C17.82 10.12 18.12 8.76 17.27 7.71L13.54 3.05C12.7 1.98 11.3 1.98 10.45 3.05Z"  stroke-width="1.5" stroke-miterlimit="10" stroke-linecap="round" stroke-linejoin="round"/>
    <path d="M12 2.3V7.56"  stroke-width="1.5" stroke-miterlimit="10" stroke-linecap="round" stroke-linejoin="round"/>
    <path d="M7.80005 10.71L12 7.56L16.2 10.71"  stroke-width="1.5" stroke-miterlimit="10" stroke-linecap="round" stroke-linejoin="round"/>
    <path d="M8.77005 14.43L10.3801 15.15C11.4101 15.61 12.5901 15.61 13.6301 15.15L15.24 14.43C16.68 13.79 18.01 15.53 17.01 16.75L13.5501 20.98C12.7001 22.02 11.31 22.02 10.45 20.98L7.00005 16.75C5.99005 15.53 7.32005 13.79 8.77005 14.43Z"  stroke-width="1.5" stroke-miterlimit="10" stroke-linecap="round" stroke-linejoin="round"/>
  </symbol>
  <symbol width="24" height="24" id="eth-classic-icon" viewBox="0 0 24 24">
    <path d="M6.89998 9.1L11.7 7C11.9 6.9 12.1 6.9 12.4 7L17.2 9.1C17.6 9.3 18 8.8 17.7 8.4L12.7 2.3C12.4 1.9 11.8 1.9 11.5 2.3L6.49997 8.4C6.09997 8.8 6.49998 9.3 6.89998 9.1Z"  stroke-width="1.5" stroke-miterlimit="10" stroke-linecap="round" stroke-linejoin="round"/>
    <path d="M6.89998 14.9L11.7 17C11.9 17.1 12.1 17.1 12.4 17L17.2 14.9C17.6 14.7 18 15.2 17.7 15.6L12.7 21.7C12.4 22.1 11.8 22.1 11.5 21.7L6.49997 15.6C6.09997 15.2 6.49998 14.7 6.89998 14.9Z"  stroke-width="1.5" stroke-miterlimit="10" stroke-linecap="round" stroke-linejoin="round"/>
    <path d="M12 9.4L6.79999 12L12 14.6L17.2 12L12 9.4Z"  stroke-width="1.5" stroke-miterlimit="10" stroke-linecap="round" stroke-linejoin="round"/>
  </symbol>
  <symbol width="24" height="24" id="ftt-icon" viewBox="0 0 24 24">
    <path d="M21 2H9C8.4 2 8 2.4 8 3V6C8 6.6 8.4 7 9 7H21C21.6 7 22 6.6 22 6V3C22 2.4 21.6 2 21 2Z"  stroke-width="1.5" stroke-miterlimit="10" stroke-linecap="round" stroke-linejoin="round"/>
    <path d="M12 17H7V22H12V17Z"  stroke-width="1.5" stroke-miterlimit="10" stroke-linecap="round" stroke-linejoin="round"/>
    <path d="M7 9.5H2V14.5H7V9.5Z"  stroke-width="1.5" stroke-miterlimit="10" stroke-linecap="round" stroke-linejoin="round"/>
    <path d="M18 9.6H9.5V14.3H18V9.6Z"  stroke-width="1.5" stroke-miterlimit="10" stroke-linecap="round" stroke-linejoin="round"/>
  </symbol>
  <symbol width="24" height="24" id="ht-icon" viewBox="0 0 24 24">
    <path d="M16.2 10C16.2 10 16 11 13 15C10.1 18.8 14.3 21.6 14.8 22H14.9C15.5 21.5 23.1 16.7 16.2 10Z"  stroke-width="1.5" stroke-miterlimit="10" stroke-linecap="round" stroke-linejoin="round"/>
    <path d="M13.8 7.8C13.8 5.5 12.9 3.4 12 2.2C11.7 1.9 11.2 2 11.1 2.4C10.7 3.9 9.49999 7.1 6.59999 10.9C2.89999 15.7 6.29999 20.9 9.79999 21.9C11.7 22.4 9.29999 20.9 8.99999 17.8C8.69999 13.9 13.8 11 13.8 7.8Z"  stroke-width="1.5" stroke-miterlimit="10" stroke-linecap="round" stroke-linejoin="round"/>
  </symbol>
  <symbol width="24" height="24" id="okb-icon" viewBox="0 0 24 24">
    <path d="M17 17C19.7614 17 22 14.7614 22 12C22 9.23858 19.7614 7 17 7C14.2386 7 12 9.23858 12 12C12 14.7614 14.2386 17 17 17Z"  stroke-width="1.5" stroke-miterlimit="10" stroke-linecap="round" stroke-linejoin="round"/>
    <path d="M12 22C14.7614 22 17 19.7614 17 17C17 14.2386 14.7614 12 12 12C9.23858 12 7 14.2386 7 17C7 19.7614 9.23858 22 12 22Z"  stroke-width="1.5" stroke-miterlimit="10" stroke-linecap="round" stroke-linejoin="round"/>
    <path d="M12 12C14.7614 12 17 9.76142 17 7C17 4.23858 14.7614 2 12 2C9.23858 2 7 4.23858 7 7C7 9.76142 9.23858 12 12 12Z"  stroke-width="1.5" stroke-miterlimit="10" stroke-linecap="round" stroke-linejoin="round"/>
    <path d="M7 17C9.76142 17 12 14.7614 12 12C12 9.23858 9.76142 7 7 7C4.23858 7 2 9.23858 2 12C2 14.7614 4.23858 17 7 17Z"  stroke-width="1.5" stroke-miterlimit="10" stroke-linecap="round" stroke-linejoin="round"/>
  </symbol>
  <symbol width="24" height="24" id="sol-icon" viewBox="0 0 24 24">
    <path d="M20 3.5H5.50001C5.20001 3.5 4.90001 3.6 4.70001 3.9L3.20001 5.9C2.70001 6.6 3.20001 7.5 4.00001 7.5H18.5C18.8 7.5 19.1 7.4 19.3 7.1L20.8 5.1C21.3 4.4 20.8 3.5 20 3.5Z"  stroke-width="1.5" stroke-miterlimit="10"/>
    <path d="M4.00001 10H18.5C18.8 10 19.1 10.1 19.3 10.4L20.8 12.4C21.3 13.1 20.8 14 20 14H5.50001C5.20001 14 4.90001 13.9 4.70001 13.6L3.20001 11.6C2.70001 10.9 3.20001 10 4.00001 10Z"  stroke-width="1.5" stroke-miterlimit="10"/>
    <path d="M20 16.5H5.50001C5.20001 16.5 4.90001 16.6 4.70001 16.9L3.20001 18.9C2.70001 19.6 3.20001 20.5 4.00001 20.5H18.5C18.8 20.5 19.1 20.4 19.3 20.1L20.8 18.1C21.3 17.4 20.8 16.5 20 16.5Z"  stroke-width="1.5" stroke-miterlimit="10"/>
  </symbol>
  <symbol width="24" height="24" id="usdt-icon" viewBox="0 0 24 24">
    <path d="M7.47002 3.35H16.53C17.59 3.35 18.84 4.12 19.31 5.07L21.71 9.89C22.29 11.05 21.97 12.7 21.02 13.57L14.09 19.86C12.94 20.9 11.07 20.9 9.92002 19.86L2.99002 13.57C2.03002 12.7 1.72002 11.05 2.30002 9.89L4.70002 5.07C5.16002 4.12 6.41002 3.35 7.47002 3.35Z"  stroke-width="1.5" stroke-miterlimit="10" stroke-linecap="round" stroke-linejoin="round"/>
    <path d="M12 14.5V8.5"  stroke-width="1.5" stroke-miterlimit="10" stroke-linecap="round" stroke-linejoin="round"/>
    <path d="M8 8.5H16"  stroke-width="1.5" stroke-miterlimit="10" stroke-linecap="round" stroke-linejoin="round"/>
  </symbol>
  <symbol width="24" height="24" id="rune-icon" viewBox="0 0 24 24">
    <path d="M12.7 11.7L16.8 15.8C17.3 16.4 17.1 17.3 16.4 17.6L6.10002 21.9C5.00002 22.4 4.10002 21 4.90002 20.2L12.7 11.7ZM12.7 11.7L8.60002 7.6C8.10002 7.1 8.30002 6.1 9.00002 5.8L17.9 2.1C19 1.7 19.9 2.9 19.2 3.8L12.7 11.7Z"  stroke-width="1.5" stroke-miterlimit="10"/>
  </symbol>
  <symbol width="24" height="24" id="trx-icon" viewBox="0 0 24 24">
    <path d="M2.6 3.6L9.3 20.4C9.7 21.3 10.4 21.4 11 20.6L20.4 8.7C20.7 8.3 20.7 7.7 20.3 7.4L17.2 4.3C17.1 4.1 16.8 4 16.7 4L3.7 2.3C2.8 2.1 2.3 2.7 2.6 3.6Z"  stroke-width="1.5" stroke-miterlimit="10" stroke-linecap="round" stroke-linejoin="round"/>
    <path d="M10 21L11 10L3 2.9"  stroke-width="1.5" stroke-miterlimit="10" stroke-linecap="round" stroke-linejoin="round"/>
    <path d="M17 4L11 10L20 8.2"  stroke-width="1.5" stroke-miterlimit="10" stroke-linecap="round" stroke-linejoin="round"/>
  </symbol>
  <symbol width="24" height="24" id="xrp-icon" viewBox="0 0 24 24">
    <path d="M5.5 2H4.1C3.1 2 2.6 3.1 3.3 3.8L9 9.5C10.6 11.1 13.3 11.1 14.9 9.5L20.6 3.8C21.4 3.1 20.9 2 19.9 2H18.5C17.7 2 16.9 2.3 16.3 2.9L12.7 6.5C12.3 6.9 11.6 6.9 11.2 6.5L7.7 2.9C7.1 2.3 6.3 2 5.5 2Z"  stroke-width="1.5" stroke-miterlimit="10" stroke-linecap="round" stroke-linejoin="round"/>
    <path d="M5.50001 22H4.10001C3.20001 22 2.70001 20.9 3.40001 20.2L9.00001 14.5C10.6 12.9 13.3 12.9 14.9 14.5L20.6 20.2C21.3 20.9 20.8 22 19.9 22H18.5C17.7 22 16.9 21.7 16.3 21.1L12.7 17.5C12.3 17.1 11.6 17.1 11.2 17.5L7.60001 21.1C7.10001 21.6 6.30001 22 5.50001 22Z"  stroke-width="1.5" stroke-miterlimit="10" stroke-linecap="round" stroke-linejoin="round"/>
  </symbol>
  <symbol width="24" height="24" id="gallery" viewBox="0 0 24 24">
    <path d="M9 10C10.1046 10 11 9.10457 11 8C11 6.89543 10.1046 6 9 6C7.89543 6 7 6.89543 7 8C7 9.10457 7.89543 10 9 10Z"  stroke-width="1.5" stroke-linecap="round" stroke-linejoin="round"/>
    <path d="M13 2H9C4 2 2 4 2 9V15C2 20 4 22 9 22H15C20 22 22 20 22 15V10"  stroke-width="1.5" stroke-linecap="round" stroke-linejoin="round"/>
    <path d="M18 2V8L20 6"  stroke-width="1.5" stroke-linecap="round" stroke-linejoin="round"/>
    <path d="M18 8L16 6"  stroke-width="1.5" stroke-linecap="round" stroke-linejoin="round"/>
    <path d="M2.66992 18.9501L7.59992 15.6401C8.38992 15.1101 9.52992 15.1701 10.2399 15.7801L10.5699 16.0701C11.3499 16.7401 12.6099 16.7401 13.3899 16.0701L17.5499 12.5001C18.3299 11.8301 19.5899 11.8301 20.3699 12.5001L21.9999 13.9001"  stroke-width="1.5" stroke-linecap="round" stroke-linejoin="round"/>
  </symbol>
  <symbol width="24" height="24" id="contacts" viewBox="0 0 24 24">
    <path fill-rule="evenodd" clip-rule="evenodd" d="M3 5C2.44772 5 2 5.44771 2 6V18C2 18.5523 2.44772 19 3 19H21C21.5523 19 22 18.5523 22 18V6C22 5.44772 21.5523 5 21 5H3ZM0 6C0 4.34315 1.34314 3 3 3H21C22.6569 3 24 4.34315 24 6V18C24 19.6569 22.6569 21 21 21H3C1.34315 21 0 19.6569 0 18V6ZM6 10.5C6 9.67157 6.67157 9 7.5 9C8.32843 9 9 9.67157 9 10.5C9 11.3284 8.32843 12 7.5 12C6.67157 12 6 11.3284 6 10.5ZM10.1756 12.7565C10.69 12.1472 11 11.3598 11 10.5C11 8.567 9.433 7 7.5 7C5.567 7 4 8.567 4 10.5C4 11.3598 4.31002 12.1472 4.82438 12.7565C3.68235 13.4994 3 14.7069 3 16C3 16.5523 3.44772 17 4 17C4.55228 17 5 16.5523 5 16C5 15.1145 5.80048 14 7.5 14C9.19952 14 10 15.1145 10 16C10 16.5523 10.4477 17 11 17C11.5523 17 12 16.5523 12 16C12 14.7069 11.3177 13.4994 10.1756 12.7565ZM13 8C12.4477 8 12 8.44772 12 9C12 9.55228 12.4477 10 13 10H19C19.5523 10 20 9.55228 20 9C20 8.44772 19.5523 8 19 8H13ZM14 12C13.4477 12 13 12.4477 13 13C13 13.5523 13.4477 14 14 14H18C18.5523 14 19 13.5523 19 13C19 12.4477 18.5523 12 18 12H14Z"/>
  </symbol>
  <symbol width="24" height="24" id="subscription" viewBox="0 0 24 24">
    <g fill="none" fill-rule="evenodd" stroke-linecap="round" stroke-linejoin="round" stroke-width="1"><path d="M3.909091,20 C2.8547292,20 2,19.1045695 2,18 L2,6 C2,4.8954305 2.8547292,4 3.909091,4 L20.090909,4 C21.1452708,4 22,4.8954305 22,6 L22,18 C22,19.1045695 21.1452708,20 20.090909,20 L3.909091,20 Z" id="Path" stroke-width="2"/><line id="Path" stroke-width="2" x1="2" x2="22" y1="9" y2="9"/><line id="Path" stroke-width="2" x1="6" x2="12" y1="14.5" y2="14.5"/></g>
  </symbol>
  <symbol width="24" height="24" id="admin_home" viewBox="0 0 24 24">
    <path d="M 12 2 A 1 1 0 0 0 11.289062 2.296875 L 1.203125 11.097656 A 0.5 0.5 0 0 0 1 11.5 A 0.5 0.5 0 0 0 1.5 12 L 4 12 L 4 20 C 4 20.552 4.448 21 5 21 L 9 21 C 9.552 21 10 20.552 10 20 L 10 14 L 14 14 L 14 20 C 14 20.552 14.448 21 15 21 L 19 21 C 19.552 21 20 20.552 20 20 L 20 12 L 22.5 12 A 0.5 0.5 0 0 0 23 11.5 A 0.5 0.5 0 0 0 22.796875 11.097656 L 12.716797 2.3027344 A 1 1 0 0 0 12.710938 2.296875 A 1 1 0 0 0 12 2 z"/>
  </symbol>
  <symbol width="24" height="24" id="card_id" viewBox="0 0 60 60">
    <path d="M54.9998 7.5H5.00024C2.25073 7.5 0 9.75073 0 12.5002V47.4998C0 50.2493 2.25073 52.5 5.00024 52.5H54.9998C57.7493 52.5 60 50.2493 60 47.4998V12.5002C60 9.75073 57.7493 7.5 54.9998 7.5ZM17.4998 17.4998C20.2642 17.4998 22.5 19.7385 22.5 22.5C22.5 25.2615 20.2642 27.5002 17.4998 27.5002C14.736 27.5002 12.5002 25.2615 12.5002 22.5C12.5002 19.7385 14.736 17.4998 17.4998 17.4998ZM27.5002 42.5002H7.5V37.5022C7.5 34.7407 9.74106 32.5027 12.5002 32.5027L22.5 32.4996C25.2637 32.4996 27.5002 34.7383 27.5002 37.4999V42.5002ZM52.5 42.5002H32.4998V37.5H52.5V42.5002ZM52.5 32.4998H32.4998V27.5002H52.5V32.4998ZM52.5 22.5H27.5002V17.4998H52.5V22.5Z"/>
  </symbol>
  <symbol width="24" height="24" id="card" viewBox="0 0 60 60">
    <path d="M0 13.5C0 12.3065 0.474106 11.1619 1.31802 10.318C2.16193 9.47411 3.30653 9 4.5 9H55.5C56.6935 9 57.8381 9.47411 58.682 10.318C59.5259 11.1619 60 12.3065 60 13.5V18H0V13.5Z"/>
    <path fill-rule="evenodd" clip-rule="evenodd" d="M0 24V46.5C0 47.6935 0.474106 48.8381 1.31802 49.682C2.16193 50.5259 3.30653 51 4.5 51H55.5C56.6935 51 57.8381 50.5259 58.682 49.682C59.5259 48.8381 60 47.6935 60 46.5V24H0ZM21 36H6V30H21V36Z"/>
  </symbol>
</svg>
